{
    "asset" : {
        "generator" : "Khronos glTF Blender I/O v3.2.43",
        "version" : "2.0"
    },
    "scene" : 0,
    "scenes" : [
        {
            "name" : "Scene",
            "nodes" : [
                0
            ]
        }
    ],
    "nodes" : [
        {
            "mesh" : 0,
            "name" : "Body",
            "rotation" : [
                0,
                -0.8069504499435425,
                0,
                0.5906192660331726
            ],
            "scale" : [
                0.002248835051432252,
                0.0022488348186016083,
                0.002248835051432252
            ],
            "translation" : [
                -0.0012414231896400452,
                0.0006971289403736591,
                3.566639497876167e-05
            ]
        }
    ],
    "materials" : [
        {
            "doubleSided" : true,
            "name" : "Body.001",
            "occlusionTexture" : {
                "index" : 0
            },
            "pbrMetallicRoughness" : {
                "roughnessFactor" : 0.858578622341156
            }
        },
        {
            "doubleSided" : true,
            "name" : "Optics.001",
            "pbrMetallicRoughness" : {
                "roughnessFactor" : 0.858578622341156
            }
        },
        {
            "doubleSided" : true,
            "name" : "Glass.001",
            "pbrMetallicRoughness" : {
                "baseColorFactor" : [
                    0.10588236153125763,
                    0.10588236153125763,
                    0.10588236153125763,
                    1
                ],
                "roughnessFactor" : 0.858578622341156
            }
        }
    ],
    "meshes" : [
        {
            "name" : "Mesh.005",
            "primitives" : [
                {
                    "attributes" : {
                        "POSITION" : 0,
                        "NORMAL" : 1,
                        "TEXCOORD_0" : 2,
                        "TEXCOORD_1" : 3,
                        "COLOR_0" : 4
                    },
                    "indices" : 5,
                    "material" : 0
                },
                {
                    "attributes" : {
                        "POSITION" : 6,
                        "NORMAL" : 7,
                        "TEXCOORD_0" : 8,
                        "TEXCOORD_1" : 9,
                        "COLOR_0" : 10
                    },
                    "indices" : 11,
                    "material" : 1
                },
                {
                    "attributes" : {
                        "POSITION" : 12,
                        "NORMAL" : 13,
                        "TEXCOORD_0" : 14,
                        "TEXCOORD_1" : 15,
                        "COLOR_0" : 16
                    },
                    "indices" : 17,
                    "material" : 2
                }
            ]
        }
    ],
    "textures" : [
        {
            "sampler" : 0,
            "source" : 0
        }
    ],
    "images" : [
        {
            "bufferView" : 6,
            "mimeType" : "image/png",
            "name" : "ao_bake"
        }
    ],
    "accessors" : [
        {
            "bufferView" : 0,
            "componentType" : 5126,
            "count" : 5019,
            "max" : [
                2358.63134765625,
                1240.929931640625,
                1426.53955078125
            ],
            "min" : [
                -2370.802978515625,
                -66.55155944824219,
                -1389.4635009765625
            ],
            "type" : "VEC3"
        },
        {
            "bufferView" : 1,
            "componentType" : 5126,
            "count" : 5019,
            "type" : "VEC3"
        },
        {
            "bufferView" : 2,
            "componentType" : 5126,
            "count" : 5019,
            "type" : "VEC2"
        },
        {
            "bufferView" : 3,
            "componentType" : 5126,
            "count" : 5019,
            "type" : "VEC2"
        },
        {
            "bufferView" : 4,
            "componentType" : 5123,
            "count" : 5019,
            "normalized" : true,
            "type" : "VEC4"
        },
        {
            "bufferView" : 5,
            "componentType" : 5123,
            "count" : 11142,
            "type" : "SCALAR"
        },
        {
            "bufferView" : 7,
            "componentType" : 5126,
            "count" : 274,
            "max" : [
                2249.428466796875,
                628.7439575195312,
                1300.369140625
            ],
            "min" : [
                -2264.328369140625,
                401.70220947265625,
                -1344.506591796875
            ],
            "type" : "VEC3"
        },
        {
            "bufferView" : 8,
            "componentType" : 5126,
            "count" : 274,
            "type" : "VEC3"
        },
        {
            "bufferView" : 9,
            "componentType" : 5126,
            "count" : 274,
            "type" : "VEC2"
        },
        {
            "bufferView" : 10,
            "componentType" : 5126,
            "count" : 274,
            "type" : "VEC2"
        },
        {
            "bufferView" : 11,
            "componentType" : 5123,
            "count" : 274,
            "normalized" : true,
            "type" : "VEC4"
        },
        {
            "bufferView" : 12,
            "componentType" : 5123,
            "count" : 648,
            "type" : "SCALAR"
        },
        {
            "bufferView" : 13,
            "componentType" : 5126,
            "count" : 128,
            "max" : [
                918.1619873046875,
                1202.1434326171875,
                1263.736328125
            ],
            "min" : [
                -1926.15869140625,
                718.5742797851562,
                -982.583984375
            ],
            "type" : "VEC3"
        },
        {
            "bufferView" : 14,
            "componentType" : 5126,
            "count" : 128,
            "type" : "VEC3"
        },
        {
            "bufferView" : 15,
            "componentType" : 5126,
            "count" : 128,
            "type" : "VEC2"
        },
        {
            "bufferView" : 16,
            "componentType" : 5126,
            "count" : 128,
            "type" : "VEC2"
        },
        {
            "bufferView" : 17,
            "componentType" : 5123,
            "count" : 128,
            "normalized" : true,
            "type" : "VEC4"
        },
        {
            "bufferView" : 18,
            "componentType" : 5123,
            "count" : 456,
            "type" : "SCALAR"
        }
    ],
    "bufferViews" : [
        {
            "buffer" : 0,
            "byteLength" : 60228,
            "byteOffset" : 0
        },
        {
            "buffer" : 0,
            "byteLength" : 60228,
            "byteOffset" : 60228
        },
        {
            "buffer" : 0,
            "byteLength" : 40152,
            "byteOffset" : 120456
        },
        {
            "buffer" : 0,
            "byteLength" : 40152,
            "byteOffset" : 160608
        },
        {
            "buffer" : 0,
            "byteLength" : 40152,
            "byteOffset" : 200760
        },
        {
            "buffer" : 0,
            "byteLength" : 22284,
            "byteOffset" : 240912
        },
        {
            "buffer" : 0,
            "byteLength" : 59418,
            "byteOffset" : 263196
        },
        {
            "buffer" : 0,
            "byteLength" : 3288,
            "byteOffset" : 322616
        },
        {
            "buffer" : 0,
            "byteLength" : 3288,
            "byteOffset" : 325904
        },
        {
            "buffer" : 0,
            "byteLength" : 2192,
            "byteOffset" : 329192
        },
        {
            "buffer" : 0,
            "byteLength" : 2192,
            "byteOffset" : 331384
        },
        {
            "buffer" : 0,
            "byteLength" : 2192,
            "byteOffset" : 333576
        },
        {
            "buffer" : 0,
            "byteLength" : 1296,
            "byteOffset" : 335768
        },
        {
            "buffer" : 0,
            "byteLength" : 1536,
            "byteOffset" : 337064
        },
        {
            "buffer" : 0,
            "byteLength" : 1536,
            "byteOffset" : 338600
        },
        {
            "buffer" : 0,
            "byteLength" : 1024,
            "byteOffset" : 340136
        },
        {
            "buffer" : 0,
            "byteLength" : 1024,
            "byteOffset" : 341160
        },
        {
            "buffer" : 0,
            "byteLength" : 1024,
            "byteOffset" : 342184
        },
        {
            "buffer" : 0,
            "byteLength" : 912,
            "byteOffset" : 343208
        }
    ],
    "samplers" : [
        {
            "magFilter" : 9729,
            "minFilter" : 9987
        }
    ],
    "buffers" : [
        {
            "byteLength" : 344120,
            "uri" : "data:application/octet-stream;base64,"
        }
    ]
}
