{
    "asset" : {
        "generator" : "Khronos glTF Blender I/O v3.2.43",
        "version" : "2.0"
    },
    "scene" : 0,
    "scenes" : [
        {
            "name" : "Scene",
            "nodes" : [
                0
            ]
        }
    ],
    "nodes" : [
        {
            "mesh" : 0,
            "name" : "Body",
            "rotation" : [
                0,
                0.000829026335850358,
                0,
                1
            ],
            "scale" : [
                0.002248835051432252,
                0.0022488348186016083,
                0.002248835051432252
            ],
            "translation" : [
                0.0031859304290264845,
                -0.34493961930274963,
                0.006021145265549421
            ]
        }
    ],
    "materials" : [
        {
            "doubleSided" : true,
            "name" : "Body.007",
            "pbrMetallicRoughness" : {
                "roughnessFactor" : 0.858578622341156
            }
        },
        {
            "doubleSided" : true,
            "name" : "Optics.007",
            "pbrMetallicRoughness" : {
                "roughnessFactor" : 0.858578622341156
            }
        },
        {
            "doubleSided" : true,
            "name" : "Glass.007",
            "pbrMetallicRoughness" : {
                "baseColorFactor" : [
                    0.10588236153125763,
                    0.10588236153125763,
                    0.10588236153125763,
                    0.5999999642372131
                ],
                "roughnessFactor" : 0.858578622341156
            }
        }
    ],
    "meshes" : [
        {
            "name" : "Mesh.039",
            "primitives" : [
                {
                    "attributes" : {
                        "POSITION" : 0,
                        "NORMAL" : 1,
                        "TEXCOORD_0" : 2,
                        "COLOR_0" : 3
                    },
                    "indices" : 4,
                    "material" : 0
                },
                {
                    "attributes" : {
                        "POSITION" : 5,
                        "NORMAL" : 6,
                        "TEXCOORD_0" : 7,
                        "COLOR_0" : 8
                    },
                    "indices" : 9,
                    "material" : 1
                },
                {
                    "attributes" : {
                        "POSITION" : 10,
                        "NORMAL" : 11,
                        "TEXCOORD_0" : 12,
                        "COLOR_0" : 13
                    },
                    "indices" : 14,
                    "material" : 2
                }
            ]
        }
    ],
    "accessors" : [
        {
            "bufferView" : 0,
            "componentType" : 5126,
            "count" : 3867,
            "max" : [
                994.9465942382812,
                1168.0947265625,
                2272.68994140625
            ],
            "min" : [
                -994.9464721679688,
                83.011962890625,
                -2129.82177734375
            ],
            "type" : "VEC3"
        },
        {
            "bufferView" : 1,
            "componentType" : 5126,
            "count" : 3867,
            "type" : "VEC3"
        },
        {
            "bufferView" : 2,
            "componentType" : 5126,
            "count" : 3867,
            "type" : "VEC2"
        },
        {
            "bufferView" : 3,
            "componentType" : 5123,
            "count" : 3867,
            "normalized" : true,
            "type" : "VEC4"
        },
        {
            "bufferView" : 4,
            "componentType" : 5123,
            "count" : 10584,
            "type" : "SCALAR"
        },
        {
            "bufferView" : 5,
            "componentType" : 5126,
            "count" : 226,
            "max" : [
                708.2960815429688,
                657.5008544921875,
                1901.45849609375
            ],
            "min" : [
                -708.2959594726562,
                519.6610107421875,
                -2022.2498779296875
            ],
            "type" : "VEC3"
        },
        {
            "bufferView" : 6,
            "componentType" : 5126,
            "count" : 226,
            "type" : "VEC3"
        },
        {
            "bufferView" : 7,
            "componentType" : 5126,
            "count" : 226,
            "type" : "VEC2"
        },
        {
            "bufferView" : 8,
            "componentType" : 5123,
            "count" : 226,
            "normalized" : true,
            "type" : "VEC4"
        },
        {
            "bufferView" : 9,
            "componentType" : 5123,
            "count" : 648,
            "type" : "SCALAR"
        },
        {
            "bufferView" : 10,
            "componentType" : 5126,
            "count" : 97,
            "max" : [
                737.6513061523438,
                1035.9925537109375,
                2020.8597412109375
            ],
            "min" : [
                -737.6511840820312,
                540.7850341796875,
                -457.6773681640625
            ],
            "type" : "VEC3"
        },
        {
            "bufferView" : 11,
            "componentType" : 5126,
            "count" : 97,
            "type" : "VEC3"
        },
        {
            "bufferView" : 12,
            "componentType" : 5126,
            "count" : 97,
            "type" : "VEC2"
        },
        {
            "bufferView" : 13,
            "componentType" : 5123,
            "count" : 97,
            "normalized" : true,
            "type" : "VEC4"
        },
        {
            "bufferView" : 14,
            "componentType" : 5123,
            "count" : 336,
            "type" : "SCALAR"
        }
    ],
    "bufferViews" : [
        {
            "buffer" : 0,
            "byteLength" : 46404,
            "byteOffset" : 0
        },
        {
            "buffer" : 0,
            "byteLength" : 46404,
            "byteOffset" : 46404
        },
        {
            "buffer" : 0,
            "byteLength" : 30936,
            "byteOffset" : 92808
        },
        {
            "buffer" : 0,
            "byteLength" : 30936,
            "byteOffset" : 123744
        },
        {
            "buffer" : 0,
            "byteLength" : 21168,
            "byteOffset" : 154680
        },
        {
            "buffer" : 0,
            "byteLength" : 2712,
            "byteOffset" : 175848
        },
        {
            "buffer" : 0,
            "byteLength" : 2712,
            "byteOffset" : 178560
        },
        {
            "buffer" : 0,
            "byteLength" : 1808,
            "byteOffset" : 181272
        },
        {
            "buffer" : 0,
            "byteLength" : 1808,
            "byteOffset" : 183080
        },
        {
            "buffer" : 0,
            "byteLength" : 1296,
            "byteOffset" : 184888
        },
        {
            "buffer" : 0,
            "byteLength" : 1164,
            "byteOffset" : 186184
        },
        {
            "buffer" : 0,
            "byteLength" : 1164,
            "byteOffset" : 187348
        },
        {
            "buffer" : 0,
            "byteLength" : 776,
            "byteOffset" : 188512
        },
        {
            "buffer" : 0,
            "byteLength" : 776,
            "byteOffset" : 189288
        },
        {
            "buffer" : 0,
            "byteLength" : 672,
            "byteOffset" : 190064
        }
    ],
    "buffers" : [
        {
            "byteLength" : 190736,
            "uri" : "data:application/octet-stream;base64,"
        }
    ]
}
