{
    "asset" : {
        "generator" : "Khronos glTF Blender I/O v3.2.40",
        "version" : "2.0"
    },
    "extensionsUsed" : [
        "KHR_materials_clearcoat"
    ],
    "scene" : 0,
    "scenes" : [
        {
            "name" : "Scene",
            "nodes" : [
                0,
                1,
                2,
                3,
                4,
                5
            ]
        }
    ],
    "nodes" : [
        {
            "mesh" : 0,
            "name" : "Cube",
            "scale" : [
                2.6020917892456055,
                0.3748370409011841,
                1.370115041732788
            ],
            "translation" : [
                0,
                0.6403852105140686,
                0
            ]
        },
        {
            "mesh" : 1,
            "name" : "Cylinder",
            "rotation" : [
                0.7068231105804443,
                0,
                0,
                0.7073903679847717
            ],
            "scale" : [
                0.47690820693969727,
                0.45309096574783325,
                0.476908415555954
            ],
            "translation" : [
                -1.8833017349243164,
                0.10729546844959259,
                1.1269471645355225
            ]
        },
        {
            "mesh" : 2,
            "name" : "Cylinder.001",
            "rotation" : [
                0.707285463809967,
                0,
                0,
                0.7069280743598938
            ],
            "scale" : [
                0.42104947566986084,
                0.19361267983913422,
                0.42104941606521606
            ],
            "translation" : [
                -1.8812111616134644,
                0.10409815609455109,
                1.1275275945663452
            ]
        },
        {
            "mesh" : 3,
            "name" : "S1",
            "scale" : [
                0.06211509928107262,
                0.06211509928107262,
                0.9377121329307556
            ],
            "translation" : [
                2.7536067962646484,
                0.8235364556312561,
                0
            ]
        },
        {
            "mesh" : 4,
            "name" : "S2",
            "scale" : [
                0.1551133692264557,
                0.12285447120666504,
                1.4756546020507812
            ],
            "translation" : [
                2.7738149166107178,
                1.0499515533447266,
                0
            ]
        },
        {
            "mesh" : 5,
            "name" : "Cube.001",
            "rotation" : [
                0,
                0,
                0.999990701675415,
                0.00432161521166563
            ],
            "scale" : [
                -0.14300955832004547,
                -0.14300955832004547,
                -1.3201651573181152
            ],
            "translation" : [
                -3.7260823249816895,
                0.024726994335651398,
                0
            ]
        }
    ],
    "materials" : [
        {
            "doubleSided" : true,
            "name" : "Material",
            "pbrMetallicRoughness" : {
                "baseColorFactor" : [
                    0.370256632566452,
                    0.8900059461593628,
                    0.00881613977253437,
                    1
                ],
                "metallicFactor" : 0.9055117964744568,
                "roughnessFactor" : 0.4000000059604645
            }
        },
        {
            "doubleSided" : true,
            "name" : "Window",
            "pbrMetallicRoughness" : {
                "baseColorFactor" : [
                    0,
                    0.5622875690460205,
                    0.8000000715255737,
                    1
                ],
                "roughnessFactor" : 0.5
            }
        },
        {
            "doubleSided" : true,
            "name" : "Material.004",
            "pbrMetallicRoughness" : {
                "baseColorFactor" : [
                    0,
                    0,
                    0,
                    1
                ],
                "metallicFactor" : 0,
                "roughnessFactor" : 0.5
            }
        },
        {
            "doubleSided" : true,
            "extensions" : {
                "KHR_materials_clearcoat" : {
                    "clearcoatFactor" : 0.6614173054695129,
                    "clearcoatRoughnessFactor" : 0.029999999329447746
                }
            },
            "name" : "Material.005",
            "pbrMetallicRoughness" : {
                "baseColorFactor" : [
                    0.34238243103027344,
                    0.34238243103027344,
                    0.34238243103027344,
                    1
                ],
                "roughnessFactor" : 0.28740155696868896
            }
        },
        {
            "doubleSided" : true,
            "name" : "Material.002",
            "pbrMetallicRoughness" : {
                "baseColorFactor" : [
                    0.8000000715255737,
                    0.018481381237506866,
                    0.018481381237506866,
                    1
                ],
                "metallicFactor" : 0,
                "roughnessFactor" : 0.5
            }
        },
        {
            "doubleSided" : true,
            "name" : "Material.001",
            "pbrMetallicRoughness" : {
                "baseColorFactor" : [
                    0.0025793537497520447,
                    0.002509233308956027,
                    0.002509233308956027,
                    1
                ],
                "metallicFactor" : 0,
                "roughnessFactor" : 0.5
            }
        }
    ],
    "meshes" : [
        {
            "name" : "Cube",
            "primitives" : [
                {
                    "attributes" : {
                        "POSITION" : 0,
                        "NORMAL" : 1,
                        "TEXCOORD_0" : 2
                    },
                    "indices" : 3,
                    "material" : 0
                },
                {
                    "attributes" : {
                        "POSITION" : 4,
                        "NORMAL" : 5,
                        "TEXCOORD_0" : 6
                    },
                    "indices" : 7,
                    "material" : 1
                }
            ]
        },
        {
            "name" : "Cylinder",
            "primitives" : [
                {
                    "attributes" : {
                        "POSITION" : 8,
                        "NORMAL" : 9,
                        "TEXCOORD_0" : 10
                    },
                    "indices" : 11
                }
            ]
        },
        {
            "name" : "Cylinder.001",
            "primitives" : [
                {
                    "attributes" : {
                        "POSITION" : 12,
                        "NORMAL" : 13,
                        "TEXCOORD_0" : 14
                    },
                    "indices" : 15,
                    "material" : 2
                },
                {
                    "attributes" : {
                        "POSITION" : 16,
                        "NORMAL" : 17,
                        "TEXCOORD_0" : 18
                    },
                    "indices" : 19,
                    "material" : 3
                },
                {
                    "attributes" : {
                        "POSITION" : 20,
                        "NORMAL" : 21,
                        "TEXCOORD_0" : 22
                    },
                    "indices" : 23,
                    "material" : 0
                },
                {
                    "attributes" : {
                        "POSITION" : 24,
                        "NORMAL" : 25,
                        "TEXCOORD_0" : 26
                    },
                    "indices" : 27,
                    "material" : 4
                }
            ]
        },
        {
            "name" : "Cube.002",
            "primitives" : [
                {
                    "attributes" : {
                        "POSITION" : 28,
                        "NORMAL" : 29,
                        "TEXCOORD_0" : 30
                    },
                    "indices" : 31,
                    "material" : 5
                }
            ]
        },
        {
            "name" : "Cube.003",
            "primitives" : [
                {
                    "attributes" : {
                        "POSITION" : 32,
                        "NORMAL" : 33,
                        "TEXCOORD_0" : 34
                    },
                    "indices" : 35,
                    "material" : 5
                }
            ]
        },
        {
            "name" : "Cube.004",
            "primitives" : [
                {
                    "attributes" : {
                        "POSITION" : 36,
                        "NORMAL" : 37,
                        "TEXCOORD_0" : 38
                    },
                    "indices" : 39,
                    "material" : 5
                }
            ]
        }
    ],
    "accessors" : [
        {
            "bufferView" : 0,
            "componentType" : 5126,
            "count" : 382,
            "max" : [
                1.1001133918762207,
                2.6867055892944336,
                1.054368019104004
            ],
            "min" : [
                -1.4524857997894287,
                -1.7006025314331055,
                -1.054368019104004
            ],
            "type" : "VEC3"
        },
        {
            "bufferView" : 1,
            "componentType" : 5126,
            "count" : 382,
            "type" : "VEC3"
        },
        {
            "bufferView" : 2,
            "componentType" : 5126,
            "count" : 382,
            "type" : "VEC2"
        },
        {
            "bufferView" : 3,
            "componentType" : 5123,
            "count" : 588,
            "type" : "SCALAR"
        },
        {
            "bufferView" : 4,
            "componentType" : 5126,
            "count" : 32,
            "max" : [
                0.8093250393867493,
                2.625054121017456,
                1.028479814529419
            ],
            "min" : [
                -0.4587947726249695,
                0.3240078091621399,
                -1.028479814529419
            ],
            "type" : "VEC3"
        },
        {
            "bufferView" : 5,
            "componentType" : 5126,
            "count" : 32,
            "type" : "VEC3"
        },
        {
            "bufferView" : 6,
            "componentType" : 5126,
            "count" : 32,
            "type" : "VEC2"
        },
        {
            "bufferView" : 7,
            "componentType" : 5123,
            "count" : 48,
            "type" : "SCALAR"
        },
        {
            "bufferView" : 8,
            "componentType" : 5126,
            "count" : 192,
            "max" : [
                1,
                1,
                1
            ],
            "min" : [
                -1,
                -1,
                -1
            ],
            "type" : "VEC3"
        },
        {
            "bufferView" : 9,
            "componentType" : 5126,
            "count" : 192,
            "type" : "VEC3"
        },
        {
            "bufferView" : 10,
            "componentType" : 5126,
            "count" : 192,
            "type" : "VEC2"
        },
        {
            "bufferView" : 11,
            "componentType" : 5123,
            "count" : 372,
            "type" : "SCALAR"
        },
        {
            "bufferView" : 12,
            "componentType" : 5126,
            "count" : 1288,
            "max" : [
                1.0258090496063232,
                1.0258090496063232,
                1.0258090496063232
            ],
            "min" : [
                -1.0258090496063232,
                -1.0258090496063232,
                -1.0258090496063232
            ],
            "type" : "VEC3"
        },
        {
            "bufferView" : 13,
            "componentType" : 5126,
            "count" : 1288,
            "type" : "VEC3"
        },
        {
            "bufferView" : 14,
            "componentType" : 5126,
            "count" : 1288,
            "type" : "VEC2"
        },
        {
            "bufferView" : 15,
            "componentType" : 5123,
            "count" : 1974,
            "type" : "SCALAR"
        },
        {
            "bufferView" : 16,
            "componentType" : 5126,
            "count" : 216,
            "max" : [
                0.7005835175514221,
                0.9757872819900513,
                0.7006611227989197
            ],
            "min" : [
                -0.7005835175514221,
                0.591408908367157,
                -0.7005059123039246
            ],
            "type" : "VEC3"
        },
        {
            "bufferView" : 17,
            "componentType" : 5126,
            "count" : 216,
            "type" : "VEC3"
        },
        {
            "bufferView" : 18,
            "componentType" : 5126,
            "count" : 216,
            "type" : "VEC2"
        },
        {
            "bufferView" : 19,
            "componentType" : 5123,
            "count" : 324,
            "type" : "SCALAR"
        },
        {
            "bufferView" : 20,
            "componentType" : 5126,
            "count" : 64,
            "max" : [
                0.6472547650337219,
                0.9757872819900513,
                0.6472603678703308
            ],
            "min" : [
                -0.6472547650337219,
                0.6658921241760254,
                -0.6472492218017578
            ],
            "type" : "VEC3"
        },
        {
            "bufferView" : 21,
            "componentType" : 5126,
            "count" : 64,
            "type" : "VEC3"
        },
        {
            "bufferView" : 22,
            "componentType" : 5126,
            "count" : 64,
            "type" : "VEC2"
        },
        {
            "bufferView" : 23,
            "componentType" : 5123,
            "count" : 96,
            "type" : "SCALAR"
        },
        {
            "bufferView" : 24,
            "componentType" : 5126,
            "count" : 16,
            "max" : [
                0.5849376320838928,
                0.3056914508342743,
                0.3230617642402649
            ],
            "min" : [
                0.2952251434326172,
                0.2993355095386505,
                -0.008810564875602722
            ],
            "type" : "VEC3"
        },
        {
            "bufferView" : 25,
            "componentType" : 5126,
            "count" : 16,
            "type" : "VEC3"
        },
        {
            "bufferView" : 26,
            "componentType" : 5126,
            "count" : 16,
            "type" : "VEC2"
        },
        {
            "bufferView" : 27,
            "componentType" : 5123,
            "count" : 24,
            "type" : "SCALAR"
        },
        {
            "bufferView" : 28,
            "componentType" : 5126,
            "count" : 123,
            "max" : [
                1,
                3.121250867843628,
                1
            ],
            "min" : [
                -10.560464859008789,
                -1,
                -1
            ],
            "type" : "VEC3"
        },
        {
            "bufferView" : 29,
            "componentType" : 5126,
            "count" : 123,
            "type" : "VEC3"
        },
        {
            "bufferView" : 30,
            "componentType" : 5126,
            "count" : 123,
            "type" : "VEC2"
        },
        {
            "bufferView" : 31,
            "componentType" : 5123,
            "count" : 240,
            "type" : "SCALAR"
        },
        {
            "bufferView" : 32,
            "componentType" : 5126,
            "count" : 260,
            "max" : [
                1.7064121961593628,
                1.2273125648498535,
                0.7640324234962463
            ],
            "min" : [
                -1.5996261835098267,
                -2.4562220573425293,
                -0.7643861770629883
            ],
            "type" : "VEC3"
        },
        {
            "bufferView" : 33,
            "componentType" : 5126,
            "count" : 260,
            "type" : "VEC3"
        },
        {
            "bufferView" : 34,
            "componentType" : 5126,
            "count" : 260,
            "type" : "VEC2"
        },
        {
            "bufferView" : 35,
            "componentType" : 5123,
            "count" : 396,
            "type" : "SCALAR"
        },
        {
            "bufferView" : 36,
            "componentType" : 5126,
            "count" : 208,
            "max" : [
                3.7642691135406494,
                1.9034011363983154,
                0.8781144022941589
            ],
            "min" : [
                -1.0720672607421875,
                -0.23693528771400452,
                -0.8777353167533875
            ],
            "type" : "VEC3"
        },
        {
            "bufferView" : 37,
            "componentType" : 5126,
            "count" : 208,
            "type" : "VEC3"
        },
        {
            "bufferView" : 38,
            "componentType" : 5126,
            "count" : 208,
            "type" : "VEC2"
        },
        {
            "bufferView" : 39,
            "componentType" : 5123,
            "count" : 312,
            "type" : "SCALAR"
        }
    ],
    "bufferViews" : [
        {
            "buffer" : 0,
            "byteLength" : 4584,
            "byteOffset" : 0
        },
        {
            "buffer" : 0,
            "byteLength" : 4584,
            "byteOffset" : 4584
        },
        {
            "buffer" : 0,
            "byteLength" : 3056,
            "byteOffset" : 9168
        },
        {
            "buffer" : 0,
            "byteLength" : 1176,
            "byteOffset" : 12224
        },
        {
            "buffer" : 0,
            "byteLength" : 384,
            "byteOffset" : 13400
        },
        {
            "buffer" : 0,
            "byteLength" : 384,
            "byteOffset" : 13784
        },
        {
            "buffer" : 0,
            "byteLength" : 256,
            "byteOffset" : 14168
        },
        {
            "buffer" : 0,
            "byteLength" : 96,
            "byteOffset" : 14424
        },
        {
            "buffer" : 0,
            "byteLength" : 2304,
            "byteOffset" : 14520
        },
        {
            "buffer" : 0,
            "byteLength" : 2304,
            "byteOffset" : 16824
        },
        {
            "buffer" : 0,
            "byteLength" : 1536,
            "byteOffset" : 19128
        },
        {
            "buffer" : 0,
            "byteLength" : 744,
            "byteOffset" : 20664
        },
        {
            "buffer" : 0,
            "byteLength" : 15456,
            "byteOffset" : 21408
        },
        {
            "buffer" : 0,
            "byteLength" : 15456,
            "byteOffset" : 36864
        },
        {
            "buffer" : 0,
            "byteLength" : 10304,
            "byteOffset" : 52320
        },
        {
            "buffer" : 0,
            "byteLength" : 3948,
            "byteOffset" : 62624
        },
        {
            "buffer" : 0,
            "byteLength" : 2592,
            "byteOffset" : 66572
        },
        {
            "buffer" : 0,
            "byteLength" : 2592,
            "byteOffset" : 69164
        },
        {
            "buffer" : 0,
            "byteLength" : 1728,
            "byteOffset" : 71756
        },
        {
            "buffer" : 0,
            "byteLength" : 648,
            "byteOffset" : 73484
        },
        {
            "buffer" : 0,
            "byteLength" : 768,
            "byteOffset" : 74132
        },
        {
            "buffer" : 0,
            "byteLength" : 768,
            "byteOffset" : 74900
        },
        {
            "buffer" : 0,
            "byteLength" : 512,
            "byteOffset" : 75668
        },
        {
            "buffer" : 0,
            "byteLength" : 192,
            "byteOffset" : 76180
        },
        {
            "buffer" : 0,
            "byteLength" : 192,
            "byteOffset" : 76372
        },
        {
            "buffer" : 0,
            "byteLength" : 192,
            "byteOffset" : 76564
        },
        {
            "buffer" : 0,
            "byteLength" : 128,
            "byteOffset" : 76756
        },
        {
            "buffer" : 0,
            "byteLength" : 48,
            "byteOffset" : 76884
        },
        {
            "buffer" : 0,
            "byteLength" : 1476,
            "byteOffset" : 76932
        },
        {
            "buffer" : 0,
            "byteLength" : 1476,
            "byteOffset" : 78408
        },
        {
            "buffer" : 0,
            "byteLength" : 984,
            "byteOffset" : 79884
        },
        {
            "buffer" : 0,
            "byteLength" : 480,
            "byteOffset" : 80868
        },
        {
            "buffer" : 0,
            "byteLength" : 3120,
            "byteOffset" : 81348
        },
        {
            "buffer" : 0,
            "byteLength" : 3120,
            "byteOffset" : 84468
        },
        {
            "buffer" : 0,
            "byteLength" : 2080,
            "byteOffset" : 87588
        },
        {
            "buffer" : 0,
            "byteLength" : 792,
            "byteOffset" : 89668
        },
        {
            "buffer" : 0,
            "byteLength" : 2496,
            "byteOffset" : 90460
        },
        {
            "buffer" : 0,
            "byteLength" : 2496,
            "byteOffset" : 92956
        },
        {
            "buffer" : 0,
            "byteLength" : 1664,
            "byteOffset" : 95452
        },
        {
            "buffer" : 0,
            "byteLength" : 624,
            "byteOffset" : 97116
        }
    ],
    "buffers" : [
        {
            "byteLength" : 97740,
            "uri" : "3.bin"
        }
    ]
}
