{
    "asset" : {
        "generator" : "Khronos glTF Blender I/O v3.2.43",
        "version" : "2.0"
    },
    "scene" : 0,
    "scenes" : [
        {
            "name" : "Scene",
            "nodes" : [
                0
            ]
        }
    ],
    "nodes" : [
        {
            "mesh" : 0,
            "name" : "Wheel_F",
            "rotation" : [
                0,
                0.007815539836883545,
                0,
                0.999969482421875
            ],
            "scale" : [
                0.0022488348186016083,
                0.0022488348186016083,
                0.0022488348186016083
            ],
            "translation" : [
                -0.0015140324831008911,
                1.6257166862487793e-05,
                -0.00047692563384771347
            ]
        }
    ],
    "materials" : [
        {
            "doubleSided" : true,
            "name" : "Wheel.001",
            "pbrMetallicRoughness" : {
                "roughnessFactor" : 0.858578622341156
            }
        },
        {
            "doubleSided" : true,
            "name" : "Alloy",
            "pbrMetallicRoughness" : {
                "baseColorFactor" : [
                    0.800000011920929,
                    0.800000011920929,
                    0.800000011920929,
                    1
                ],
                "metallicFactor" : 0,
                "roughnessFactor" : 0.5
            }
        }
    ],
    "meshes" : [
        {
            "name" : "Mesh.009",
            "primitives" : [
                {
                    "attributes" : {
                        "POSITION" : 0,
                        "NORMAL" : 1,
                        "TEXCOORD_0" : 2
                    },
                    "indices" : 3,
                    "material" : 0
                },
                {
                    "attributes" : {
                        "POSITION" : 4,
                        "NORMAL" : 5,
                        "TEXCOORD_0" : 6
                    },
                    "indices" : 7,
                    "material" : 1
                }
            ]
        }
    ],
    "accessors" : [
        {
            "bufferView" : 0,
            "componentType" : 5126,
            "count" : 207,
            "max" : [
                156.85879516601562,
                337.957275390625,
                337.957275390625
            ],
            "min" : [
                -156.85879516601562,
                -337.957275390625,
                -337.957275390625
            ],
            "type" : "VEC3"
        },
        {
            "bufferView" : 1,
            "componentType" : 5126,
            "count" : 207,
            "type" : "VEC3"
        },
        {
            "bufferView" : 2,
            "componentType" : 5126,
            "count" : 207,
            "type" : "VEC2"
        },
        {
            "bufferView" : 3,
            "componentType" : 5123,
            "count" : 843,
            "type" : "SCALAR"
        },
        {
            "bufferView" : 4,
            "componentType" : 5126,
            "count" : 253,
            "max" : [
                155.1417999267578,
                254.0664825439453,
                254.06640625
            ],
            "min" : [
                -156.11927795410156,
                -254.06642150878906,
                -254.0666046142578
            ],
            "type" : "VEC3"
        },
        {
            "bufferView" : 5,
            "componentType" : 5126,
            "count" : 253,
            "type" : "VEC3"
        },
        {
            "bufferView" : 6,
            "componentType" : 5126,
            "count" : 253,
            "type" : "VEC2"
        },
        {
            "bufferView" : 7,
            "componentType" : 5123,
            "count" : 612,
            "type" : "SCALAR"
        }
    ],
    "bufferViews" : [
        {
            "buffer" : 0,
            "byteLength" : 2484,
            "byteOffset" : 0
        },
        {
            "buffer" : 0,
            "byteLength" : 2484,
            "byteOffset" : 2484
        },
        {
            "buffer" : 0,
            "byteLength" : 1656,
            "byteOffset" : 4968
        },
        {
            "buffer" : 0,
            "byteLength" : 1686,
            "byteOffset" : 6624
        },
        {
            "buffer" : 0,
            "byteLength" : 3036,
            "byteOffset" : 8312
        },
        {
            "buffer" : 0,
            "byteLength" : 3036,
            "byteOffset" : 11348
        },
        {
            "buffer" : 0,
            "byteLength" : 2024,
            "byteOffset" : 14384
        },
        {
            "buffer" : 0,
            "byteLength" : 1224,
            "byteOffset" : 16408
        }
    ],
    "buffers" : [
        {
            "byteLength" : 17632,
            "uri" : "data:application/octet-stream;base64,"
        }
    ]
}
