{
    "asset" : {
        "generator" : "Khronos glTF Blender I/O v3.2.43",
        "version" : "2.0"
    },
    "scene" : 0,
    "scenes" : [
        {
            "name" : "Scene",
            "nodes" : [
                0
            ]
        }
    ],
    "nodes" : [
        {
            "mesh" : 0,
            "name" : "Body",
            "rotation" : [
                0,
                0.00042649309034459293,
                0,
                1
            ],
            "scale" : [
                0.0022488355170935392,
                0.0022488348186016083,
                0.0022488355170935392
            ],
            "translation" : [
                -0.011177951470017433,
                -0.46574220061302185,
                -0.012527517043054104
            ]
        }
    ],
    "materials" : [
        {
            "doubleSided" : true,
            "name" : "Body.002",
            "pbrMetallicRoughness" : {
                "roughnessFactor" : 0.858578622341156
            }
        },
        {
            "doubleSided" : true,
            "name" : "Optics.002",
            "pbrMetallicRoughness" : {
                "roughnessFactor" : 0.858578622341156
            }
        },
        {
            "doubleSided" : true,
            "name" : "Glass.002",
            "pbrMetallicRoughness" : {
                "baseColorFactor" : [
                    0.10588236153125763,
                    0.10588236153125763,
                    0.10588236153125763,
                    0.5999999642372131
                ],
                "roughnessFactor" : 0.858578622341156
            }
        }
    ],
    "meshes" : [
        {
            "name" : "Mesh.010",
            "primitives" : [
                {
                    "attributes" : {
                        "POSITION" : 0,
                        "NORMAL" : 1,
                        "TEXCOORD_0" : 2
                    },
                    "indices" : 3,
                    "material" : 0
                },
                {
                    "attributes" : {
                        "POSITION" : 4,
                        "NORMAL" : 5,
                        "TEXCOORD_0" : 6
                    },
                    "indices" : 7,
                    "material" : 1
                },
                {
                    "attributes" : {
                        "POSITION" : 8,
                        "NORMAL" : 9,
                        "TEXCOORD_0" : 10
                    },
                    "indices" : 11,
                    "material" : 2
                }
            ]
        }
    ],
    "accessors" : [
        {
            "bufferView" : 0,
            "componentType" : 5126,
            "count" : 4660,
            "max" : [
                979.7551879882812,
                1525.99365234375,
                2245.292724609375
            ],
            "min" : [
                -979.7555541992188,
                155.03465270996094,
                -2206.162841796875
            ],
            "type" : "VEC3"
        },
        {
            "bufferView" : 1,
            "componentType" : 5126,
            "count" : 4660,
            "type" : "VEC3"
        },
        {
            "bufferView" : 2,
            "componentType" : 5126,
            "count" : 4660,
            "type" : "VEC2"
        },
        {
            "bufferView" : 3,
            "componentType" : 5123,
            "count" : 12234,
            "type" : "SCALAR"
        },
        {
            "bufferView" : 4,
            "componentType" : 5126,
            "count" : 398,
            "max" : [
                792.781494140625,
                1013.6898193359375,
                2077.038818359375
            ],
            "min" : [
                -792.781494140625,
                691.6244506835938,
                -2080.848876953125
            ],
            "type" : "VEC3"
        },
        {
            "bufferView" : 5,
            "componentType" : 5126,
            "count" : 398,
            "type" : "VEC3"
        },
        {
            "bufferView" : 6,
            "componentType" : 5126,
            "count" : 398,
            "type" : "VEC2"
        },
        {
            "bufferView" : 7,
            "componentType" : 5123,
            "count" : 840,
            "type" : "SCALAR"
        },
        {
            "bufferView" : 8,
            "componentType" : 5126,
            "count" : 153,
            "max" : [
                766.5810546875,
                1438.97265625,
                1190.5946044921875
            ],
            "min" : [
                -766.5811767578125,
                1029.531982421875,
                -2031.1817626953125
            ],
            "type" : "VEC3"
        },
        {
            "bufferView" : 9,
            "componentType" : 5126,
            "count" : 153,
            "type" : "VEC3"
        },
        {
            "bufferView" : 10,
            "componentType" : 5126,
            "count" : 153,
            "type" : "VEC2"
        },
        {
            "bufferView" : 11,
            "componentType" : 5123,
            "count" : 546,
            "type" : "SCALAR"
        }
    ],
    "bufferViews" : [
        {
            "buffer" : 0,
            "byteLength" : 55920,
            "byteOffset" : 0
        },
        {
            "buffer" : 0,
            "byteLength" : 55920,
            "byteOffset" : 55920
        },
        {
            "buffer" : 0,
            "byteLength" : 37280,
            "byteOffset" : 111840
        },
        {
            "buffer" : 0,
            "byteLength" : 24468,
            "byteOffset" : 149120
        },
        {
            "buffer" : 0,
            "byteLength" : 4776,
            "byteOffset" : 173588
        },
        {
            "buffer" : 0,
            "byteLength" : 4776,
            "byteOffset" : 178364
        },
        {
            "buffer" : 0,
            "byteLength" : 3184,
            "byteOffset" : 183140
        },
        {
            "buffer" : 0,
            "byteLength" : 1680,
            "byteOffset" : 186324
        },
        {
            "buffer" : 0,
            "byteLength" : 1836,
            "byteOffset" : 188004
        },
        {
            "buffer" : 0,
            "byteLength" : 1836,
            "byteOffset" : 189840
        },
        {
            "buffer" : 0,
            "byteLength" : 1224,
            "byteOffset" : 191676
        },
        {
            "buffer" : 0,
            "byteLength" : 1092,
            "byteOffset" : 192900
        }
    ],
    "buffers" : [
        {
            "byteLength" : 193992,
            "uri" : "data:application/octet-stream;base64,"
        }
    ]
}
