{
    "asset" : {
        "generator" : "Khronos glTF Blender I/O v1.4.40",
        "version" : "2.0"
    },
    "scene" : 0,
    "scenes" : [
        {
            "name" : "Scene",
            "nodes" : [
                0
            ]
        }
    ],
    "nodes" : [
        {
            "mesh" : 0,
            "name" : "Cylinder.001",
            "rotation" : [
                0.7071068286895752,
                0,
                0,
                0.7071068286895752
            ],
            "scale" : [
                1.0555111169815063,
                0.3885699212551117,
                1.0555111169815063
            ],
            "translation" : [
                0.12555010616779327,
                0.16700218617916107,
                0.0007079604547470808
            ]
        }
    ],
    "materials" : [
        {
            "doubleSided" : true,
            "name" : "Material.003",
            "pbrMetallicRoughness" : {
                "baseColorFactor" : [
                    0.0020634487736970186,
                    0.0020634487736970186,
                    0.0020634487736970186,
                    1
                ],
                "metallicFactor" : 0.34532374143600464,
                "roughnessFactor" : 0.5
            }
        },
        {
            "doubleSided" : true,
            "name" : "Material.004",
            "pbrMetallicRoughness" : {
                "baseColorFactor" : [
                    0.012142933905124664,
                    0,
                    0.0006496846908703446,
                    1
                ],
                "metallicFactor" : 0.20143884420394897,
                "roughnessFactor" : 0.5
            }
        },
        {
            "doubleSided" : true,
            "name" : "Material.006",
            "pbrMetallicRoughness" : {
                "baseColorFactor" : [
                    0,
                    0,
                    0,
                    1
                ],
                "metallicFactor" : 0.9858155846595764,
                "roughnessFactor" : 0.5
            }
        }
    ],
    "meshes" : [
        {
            "name" : "Cylinder.001",
            "primitives" : [
                {
                    "attributes" : {
                        "POSITION" : 0,
                        "NORMAL" : 1,
                        "TEXCOORD_0" : 2
                    },
                    "indices" : 3,
                    "material" : 0
                },
                {
                    "attributes" : {
                        "POSITION" : 4,
                        "NORMAL" : 5,
                        "TEXCOORD_0" : 6
                    },
                    "indices" : 7,
                    "material" : 1
                },
                {
                    "attributes" : {
                        "POSITION" : 8,
                        "NORMAL" : 9,
                        "TEXCOORD_0" : 10
                    },
                    "indices" : 11,
                    "material" : 2
                }
            ]
        }
    ],
    "accessors" : [
        {
            "bufferView" : 0,
            "componentType" : 5126,
            "count" : 1282,
            "max" : [
                1.1480711698532104,
                6.181102275848389,
                0.2882944643497467
            ],
            "min" : [
                -9.081356048583984,
                -6.181102275848389,
                -1.1515527963638306
            ],
            "type" : "VEC3"
        },
        {
            "bufferView" : 1,
            "componentType" : 5126,
            "count" : 1282,
            "type" : "VEC3"
        },
        {
            "bufferView" : 2,
            "componentType" : 5126,
            "count" : 1282,
            "type" : "VEC2"
        },
        {
            "bufferView" : 3,
            "componentType" : 5123,
            "count" : 1944,
            "type" : "SCALAR"
        },
        {
            "bufferView" : 4,
            "componentType" : 5126,
            "count" : 612,
            "max" : [
                1.8284657001495361,
                5.869801044464111,
                0.31850501894950867
            ],
            "min" : [
                -9.136520385742188,
                -5.869801044464111,
                -3.300535202026367
            ],
            "type" : "VEC3"
        },
        {
            "bufferView" : 5,
            "componentType" : 5126,
            "count" : 612,
            "type" : "VEC3"
        },
        {
            "bufferView" : 6,
            "componentType" : 5126,
            "count" : 612,
            "type" : "VEC2"
        },
        {
            "bufferView" : 7,
            "componentType" : 5123,
            "count" : 2952,
            "type" : "SCALAR"
        },
        {
            "bufferView" : 8,
            "componentType" : 5126,
            "count" : 176,
            "max" : [
                1.5310521125793457,
                5.413773536682129,
                -0.7590234875679016
            ],
            "min" : [
                -8.99480152130127,
                -5.413773536682129,
                -3.069017171859741
            ],
            "type" : "VEC3"
        },
        {
            "bufferView" : 9,
            "componentType" : 5126,
            "count" : 176,
            "type" : "VEC3"
        },
        {
            "bufferView" : 10,
            "componentType" : 5126,
            "count" : 176,
            "type" : "VEC2"
        },
        {
            "bufferView" : 11,
            "componentType" : 5123,
            "count" : 816,
            "type" : "SCALAR"
        }
    ],
    "bufferViews" : [
        {
            "buffer" : 0,
            "byteLength" : 15384,
            "byteOffset" : 0
        },
        {
            "buffer" : 0,
            "byteLength" : 15384,
            "byteOffset" : 15384
        },
        {
            "buffer" : 0,
            "byteLength" : 10256,
            "byteOffset" : 30768
        },
        {
            "buffer" : 0,
            "byteLength" : 3888,
            "byteOffset" : 41024
        },
        {
            "buffer" : 0,
            "byteLength" : 7344,
            "byteOffset" : 44912
        },
        {
            "buffer" : 0,
            "byteLength" : 7344,
            "byteOffset" : 52256
        },
        {
            "buffer" : 0,
            "byteLength" : 4896,
            "byteOffset" : 59600
        },
        {
            "buffer" : 0,
            "byteLength" : 5904,
            "byteOffset" : 64496
        },
        {
            "buffer" : 0,
            "byteLength" : 2112,
            "byteOffset" : 70400
        },
        {
            "buffer" : 0,
            "byteLength" : 2112,
            "byteOffset" : 72512
        },
        {
            "buffer" : 0,
            "byteLength" : 1408,
            "byteOffset" : 74624
        },
        {
            "buffer" : 0,
            "byteLength" : 1632,
            "byteOffset" : 76032
        }
    ],
    "buffers" : [
        {
            "byteLength" : 77664,
            "uri" : "data:application/octet-stream;base64,"
        }
    ]
}
