{
    "asset" : {
        "generator" : "Khronos glTF Blender I/O v3.2.43",
        "version" : "2.0"
    },
    "scene" : 0,
    "scenes" : [
        {
            "name" : "Scene",
            "nodes" : [
                0
            ]
        }
    ],
    "nodes" : [
        {
            "mesh" : 0,
            "name" : "Wheel_C",
            "rotation" : [
                0,
                0.005840832833200693,
                0,
                0.9999829530715942
            ],
            "scale" : [
                0.0022488352842628956,
                0.0022488348186016083,
                0.0022488352842628956
            ],
            "translation" : [
                0.00036539696156978607,
                5.932757630944252e-06,
                0.00010269647464156151
            ]
        }
    ],
    "materials" : [
        {
            "doubleSided" : true,
            "name" : "Wheel",
            "pbrMetallicRoughness" : {
                "roughnessFactor" : 0.858578622341156
            }
        },
        {
            "doubleSided" : true,
            "name" : "Alloy",
            "pbrMetallicRoughness" : {
                "baseColorFactor" : [
                    0.800000011920929,
                    0.800000011920929,
                    0.800000011920929,
                    1
                ],
                "metallicFactor" : 0,
                "roughnessFactor" : 0.5
            }
        }
    ],
    "meshes" : [
        {
            "name" : "Mesh",
            "primitives" : [
                {
                    "attributes" : {
                        "POSITION" : 0,
                        "NORMAL" : 1,
                        "TEXCOORD_0" : 2
                    },
                    "indices" : 3,
                    "material" : 0
                },
                {
                    "attributes" : {
                        "POSITION" : 4,
                        "NORMAL" : 5,
                        "TEXCOORD_0" : 6
                    },
                    "indices" : 7,
                    "material" : 1
                }
            ]
        }
    ],
    "accessors" : [
        {
            "bufferView" : 0,
            "componentType" : 5126,
            "count" : 249,
            "max" : [
                119.14347076416016,
                273.23187255859375,
                273.23187255859375
            ],
            "min" : [
                -74.60568237304688,
                -273.23187255859375,
                -273.23187255859375
            ],
            "type" : "VEC3"
        },
        {
            "bufferView" : 1,
            "componentType" : 5126,
            "count" : 249,
            "type" : "VEC3"
        },
        {
            "bufferView" : 2,
            "componentType" : 5126,
            "count" : 249,
            "type" : "VEC2"
        },
        {
            "bufferView" : 3,
            "componentType" : 5123,
            "count" : 963,
            "type" : "SCALAR"
        },
        {
            "bufferView" : 4,
            "componentType" : 5126,
            "count" : 221,
            "max" : [
                134.0760498046875,
                192.37887573242188,
                192.37884521484375
            ],
            "min" : [
                -74.52976989746094,
                -192.37887573242188,
                -192.37889099121094
            ],
            "type" : "VEC3"
        },
        {
            "bufferView" : 5,
            "componentType" : 5126,
            "count" : 221,
            "type" : "VEC3"
        },
        {
            "bufferView" : 6,
            "componentType" : 5126,
            "count" : 221,
            "type" : "VEC2"
        },
        {
            "bufferView" : 7,
            "componentType" : 5123,
            "count" : 654,
            "type" : "SCALAR"
        }
    ],
    "bufferViews" : [
        {
            "buffer" : 0,
            "byteLength" : 2988,
            "byteOffset" : 0
        },
        {
            "buffer" : 0,
            "byteLength" : 2988,
            "byteOffset" : 2988
        },
        {
            "buffer" : 0,
            "byteLength" : 1992,
            "byteOffset" : 5976
        },
        {
            "buffer" : 0,
            "byteLength" : 1926,
            "byteOffset" : 7968
        },
        {
            "buffer" : 0,
            "byteLength" : 2652,
            "byteOffset" : 9896
        },
        {
            "buffer" : 0,
            "byteLength" : 2652,
            "byteOffset" : 12548
        },
        {
            "buffer" : 0,
            "byteLength" : 1768,
            "byteOffset" : 15200
        },
        {
            "buffer" : 0,
            "byteLength" : 1308,
            "byteOffset" : 16968
        }
    ],
    "buffers" : [
        {
            "byteLength" : 18276,
            "uri" : "data:application/octet-stream;base64,"
        }
    ]
}
