{
    "asset" : {
        "generator" : "Khronos glTF Blender I/O v3.2.43",
        "version" : "2.0"
    },
    "scene" : 0,
    "scenes" : [
        {
            "name" : "Scene",
            "nodes" : [
                0
            ]
        }
    ],
    "nodes" : [
        {
            "mesh" : 0,
            "name" : "Wheel_H",
            "rotation" : [
                0,
                -0.0026717728469520807,
                0,
                0.9999964237213135
            ],
            "scale" : [
                0.002248835051432252,
                0.0022488348186016083,
                0.002248835051432252
            ],
            "translation" : [
                -0.0002078413963317871,
                -0.0008737742900848389,
                -0.0020447298884391785
            ]
        }
    ],
    "materials" : [
        {
            "doubleSided" : true,
            "name" : "Wheel.006",
            "pbrMetallicRoughness" : {
                "roughnessFactor" : 0.858578622341156
            }
        },
        {
            "doubleSided" : true,
            "name" : "Alloy",
            "pbrMetallicRoughness" : {
                "baseColorFactor" : [
                    0.800000011920929,
                    0.800000011920929,
                    0.800000011920929,
                    1
                ],
                "metallicFactor" : 0,
                "roughnessFactor" : 0.5
            }
        }
    ],
    "meshes" : [
        {
            "name" : "Mesh.035",
            "primitives" : [
                {
                    "attributes" : {
                        "POSITION" : 0,
                        "NORMAL" : 1,
                        "TEXCOORD_0" : 2
                    },
                    "indices" : 3,
                    "material" : 0
                },
                {
                    "attributes" : {
                        "POSITION" : 4,
                        "NORMAL" : 5,
                        "TEXCOORD_0" : 6
                    },
                    "indices" : 7,
                    "material" : 1
                }
            ]
        }
    ],
    "accessors" : [
        {
            "bufferView" : 0,
            "componentType" : 5126,
            "count" : 206,
            "max" : [
                149.09197998046875,
                337.1017150878906,
                337.1017150878906
            ],
            "min" : [
                -153.01393127441406,
                -337.1017150878906,
                -337.1017150878906
            ],
            "type" : "VEC3"
        },
        {
            "bufferView" : 1,
            "componentType" : 5126,
            "count" : 206,
            "type" : "VEC3"
        },
        {
            "bufferView" : 2,
            "componentType" : 5126,
            "count" : 206,
            "type" : "VEC2"
        },
        {
            "bufferView" : 3,
            "componentType" : 5123,
            "count" : 720,
            "type" : "SCALAR"
        },
        {
            "bufferView" : 4,
            "componentType" : 5126,
            "count" : 483,
            "max" : [
                153.01393127441406,
                286.2845764160156,
                286.2845764160156
            ],
            "min" : [
                -153.01393127441406,
                -286.2845764160156,
                -286.2845458984375
            ],
            "type" : "VEC3"
        },
        {
            "bufferView" : 5,
            "componentType" : 5126,
            "count" : 483,
            "type" : "VEC3"
        },
        {
            "bufferView" : 6,
            "componentType" : 5126,
            "count" : 483,
            "type" : "VEC2"
        },
        {
            "bufferView" : 7,
            "componentType" : 5123,
            "count" : 1089,
            "type" : "SCALAR"
        }
    ],
    "bufferViews" : [
        {
            "buffer" : 0,
            "byteLength" : 2472,
            "byteOffset" : 0
        },
        {
            "buffer" : 0,
            "byteLength" : 2472,
            "byteOffset" : 2472
        },
        {
            "buffer" : 0,
            "byteLength" : 1648,
            "byteOffset" : 4944
        },
        {
            "buffer" : 0,
            "byteLength" : 1440,
            "byteOffset" : 6592
        },
        {
            "buffer" : 0,
            "byteLength" : 5796,
            "byteOffset" : 8032
        },
        {
            "buffer" : 0,
            "byteLength" : 5796,
            "byteOffset" : 13828
        },
        {
            "buffer" : 0,
            "byteLength" : 3864,
            "byteOffset" : 19624
        },
        {
            "buffer" : 0,
            "byteLength" : 2178,
            "byteOffset" : 23488
        }
    ],
    "buffers" : [
        {
            "byteLength" : 25668,
            "uri" : "data:application/octet-stream;base64,"
        }
    ]
}
