{
    "asset" : {
        "generator" : "Khronos glTF Blender I/O v3.2.43",
        "version" : "2.0"
    },
    "scene" : 0,
    "scenes" : [
        {
            "name" : "Scene",
            "nodes" : [
                0
            ]
        }
    ],
    "nodes" : [
        {
            "mesh" : 0,
            "name" : "Body",
            "rotation" : [
                0,
                0.0005491201300173998,
                0,
                1
            ],
            "scale" : [
                0.00224883365444839,
                0.0022488348186016083,
                0.00224883365444839
            ],
            "translation" : [
                -0.012933693826198578,
                -0.5303964614868164,
                -0.8706711530685425
            ]
        }
    ],
    "materials" : [
        {
            "doubleSided" : true,
            "name" : "Body.003",
            "pbrMetallicRoughness" : {
                "roughnessFactor" : 0.858578622341156
            }
        },
        {
            "doubleSided" : true,
            "name" : "Optics.003",
            "pbrMetallicRoughness" : {
                "roughnessFactor" : 0.858578622341156
            }
        },
        {
            "doubleSided" : true,
            "name" : "Glass.003",
            "pbrMetallicRoughness" : {
                "baseColorFactor" : [
                    0.10588236153125763,
                    0.10588236153125763,
                    0.10588236153125763,
                    0.5999999642372131
                ],
                "roughnessFactor" : 0.858578622341156
            }
        }
    ],
    "meshes" : [
        {
            "name" : "Mesh.016",
            "primitives" : [
                {
                    "attributes" : {
                        "POSITION" : 0,
                        "NORMAL" : 1,
                        "TEXCOORD_0" : 2
                    },
                    "indices" : 3,
                    "material" : 0
                },
                {
                    "attributes" : {
                        "POSITION" : 4,
                        "NORMAL" : 5,
                        "TEXCOORD_0" : 6
                    },
                    "indices" : 7,
                    "material" : 1
                },
                {
                    "attributes" : {
                        "POSITION" : 8,
                        "NORMAL" : 9,
                        "TEXCOORD_0" : 10
                    },
                    "indices" : 11,
                    "material" : 2
                }
            ]
        }
    ],
    "accessors" : [
        {
            "bufferView" : 0,
            "componentType" : 5126,
            "count" : 5049,
            "max" : [
                1051.19287109375,
                1978.4423828125,
                2629.6826171875
            ],
            "min" : [
                -1051.192626953125,
                181.3486328125,
                -2556.767578125
            ],
            "type" : "VEC3"
        },
        {
            "bufferView" : 1,
            "componentType" : 5126,
            "count" : 5049,
            "type" : "VEC3"
        },
        {
            "bufferView" : 2,
            "componentType" : 5126,
            "count" : 5049,
            "type" : "VEC2"
        },
        {
            "bufferView" : 3,
            "componentType" : 5123,
            "count" : 13800,
            "type" : "SCALAR"
        },
        {
            "bufferView" : 4,
            "componentType" : 5126,
            "count" : 209,
            "max" : [
                902.5625,
                1171.766845703125,
                2515.271484375
            ],
            "min" : [
                -902.562744140625,
                316.0196228027344,
                -2393.14501953125
            ],
            "type" : "VEC3"
        },
        {
            "bufferView" : 5,
            "componentType" : 5126,
            "count" : 209,
            "type" : "VEC3"
        },
        {
            "bufferView" : 6,
            "componentType" : 5126,
            "count" : 209,
            "type" : "VEC2"
        },
        {
            "bufferView" : 7,
            "componentType" : 5123,
            "count" : 588,
            "type" : "SCALAR"
        },
        {
            "bufferView" : 8,
            "componentType" : 5126,
            "count" : 212,
            "max" : [
                858.2481079101562,
                1825.88671875,
                1762.288818359375
            ],
            "min" : [
                -859.9539794921875,
                1223.5272216796875,
                -2410.220703125
            ],
            "type" : "VEC3"
        },
        {
            "bufferView" : 9,
            "componentType" : 5126,
            "count" : 212,
            "type" : "VEC3"
        },
        {
            "bufferView" : 10,
            "componentType" : 5126,
            "count" : 212,
            "type" : "VEC2"
        },
        {
            "bufferView" : 11,
            "componentType" : 5123,
            "count" : 591,
            "type" : "SCALAR"
        }
    ],
    "bufferViews" : [
        {
            "buffer" : 0,
            "byteLength" : 60588,
            "byteOffset" : 0
        },
        {
            "buffer" : 0,
            "byteLength" : 60588,
            "byteOffset" : 60588
        },
        {
            "buffer" : 0,
            "byteLength" : 40392,
            "byteOffset" : 121176
        },
        {
            "buffer" : 0,
            "byteLength" : 27600,
            "byteOffset" : 161568
        },
        {
            "buffer" : 0,
            "byteLength" : 2508,
            "byteOffset" : 189168
        },
        {
            "buffer" : 0,
            "byteLength" : 2508,
            "byteOffset" : 191676
        },
        {
            "buffer" : 0,
            "byteLength" : 1672,
            "byteOffset" : 194184
        },
        {
            "buffer" : 0,
            "byteLength" : 1176,
            "byteOffset" : 195856
        },
        {
            "buffer" : 0,
            "byteLength" : 2544,
            "byteOffset" : 197032
        },
        {
            "buffer" : 0,
            "byteLength" : 2544,
            "byteOffset" : 199576
        },
        {
            "buffer" : 0,
            "byteLength" : 1696,
            "byteOffset" : 202120
        },
        {
            "buffer" : 0,
            "byteLength" : 1182,
            "byteOffset" : 203816
        }
    ],
    "buffers" : [
        {
            "byteLength" : 205000,
            "uri" : "data:application/octet-stream;base64,"
        }
    ]
}
