{
    "asset" : {
        "generator" : "Khronos glTF Blender I/O v3.2.43",
        "version" : "2.0"
    },
    "scene" : 0,
    "scenes" : [
        {
            "name" : "Scene",
            "nodes" : [
                0
            ]
        }
    ],
    "nodes" : [
        {
            "mesh" : 0,
            "name" : "Body",
            "scale" : [
                0.0022488348186016083,
                0.0022488348186016083,
                0.0022488348186016083
            ],
            "translation" : [
                -0.00015698187053203583,
                -0.6895955204963684,
                -0.002275705337524414
            ]
        }
    ],
    "materials" : [
        {
            "doubleSided" : true,
            "name" : "Body.005",
            "pbrMetallicRoughness" : {
                "roughnessFactor" : 0.858578622341156
            }
        },
        {
            "doubleSided" : true,
            "name" : "Optics.005",
            "pbrMetallicRoughness" : {
                "roughnessFactor" : 0.858578622341156
            }
        },
        {
            "doubleSided" : true,
            "name" : "Glass.005",
            "pbrMetallicRoughness" : {
                "baseColorFactor" : [
                    0.10588236153125763,
                    0.10588236153125763,
                    0.10588236153125763,
                    0.5999999642372131
                ],
                "roughnessFactor" : 0.858578622341156
            }
        }
    ],
    "meshes" : [
        {
            "name" : "Mesh.026",
            "primitives" : [
                {
                    "attributes" : {
                        "POSITION" : 0,
                        "NORMAL" : 1,
                        "TEXCOORD_0" : 2
                    },
                    "indices" : 3,
                    "material" : 0
                },
                {
                    "attributes" : {
                        "POSITION" : 4,
                        "NORMAL" : 5,
                        "TEXCOORD_0" : 6
                    },
                    "indices" : 7,
                    "material" : 1
                },
                {
                    "attributes" : {
                        "POSITION" : 8,
                        "NORMAL" : 9,
                        "TEXCOORD_0" : 10
                    },
                    "indices" : 11,
                    "material" : 2
                }
            ]
        }
    ],
    "accessors" : [
        {
            "bufferView" : 0,
            "componentType" : 5126,
            "count" : 5161,
            "max" : [
                1163.309326171875,
                1910.246826171875,
                2914.48291015625
            ],
            "min" : [
                -1163.309326171875,
                208.12245178222656,
                -2914.48291015625
            ],
            "type" : "VEC3"
        },
        {
            "bufferView" : 1,
            "componentType" : 5126,
            "count" : 5161,
            "type" : "VEC3"
        },
        {
            "bufferView" : 2,
            "componentType" : 5126,
            "count" : 5161,
            "type" : "VEC2"
        },
        {
            "bufferView" : 3,
            "componentType" : 5123,
            "count" : 12972,
            "type" : "SCALAR"
        },
        {
            "bufferView" : 4,
            "componentType" : 5126,
            "count" : 130,
            "max" : [
                877.1285400390625,
                1243.699462890625,
                2757.74072265625
            ],
            "min" : [
                -877.1287841796875,
                484.8861999511719,
                -2765.1259765625
            ],
            "type" : "VEC3"
        },
        {
            "bufferView" : 5,
            "componentType" : 5126,
            "count" : 130,
            "type" : "VEC3"
        },
        {
            "bufferView" : 6,
            "componentType" : 5126,
            "count" : 130,
            "type" : "VEC2"
        },
        {
            "bufferView" : 7,
            "componentType" : 5123,
            "count" : 300,
            "type" : "SCALAR"
        },
        {
            "bufferView" : 8,
            "componentType" : 5126,
            "count" : 136,
            "max" : [
                891.6847534179688,
                1810.14697265625,
                1531.593505859375
            ],
            "min" : [
                -891.6849975585938,
                1277.310791015625,
                -734.156494140625
            ],
            "type" : "VEC3"
        },
        {
            "bufferView" : 9,
            "componentType" : 5126,
            "count" : 136,
            "type" : "VEC3"
        },
        {
            "bufferView" : 10,
            "componentType" : 5126,
            "count" : 136,
            "type" : "VEC2"
        },
        {
            "bufferView" : 11,
            "componentType" : 5123,
            "count" : 474,
            "type" : "SCALAR"
        }
    ],
    "bufferViews" : [
        {
            "buffer" : 0,
            "byteLength" : 61932,
            "byteOffset" : 0
        },
        {
            "buffer" : 0,
            "byteLength" : 61932,
            "byteOffset" : 61932
        },
        {
            "buffer" : 0,
            "byteLength" : 41288,
            "byteOffset" : 123864
        },
        {
            "buffer" : 0,
            "byteLength" : 25944,
            "byteOffset" : 165152
        },
        {
            "buffer" : 0,
            "byteLength" : 1560,
            "byteOffset" : 191096
        },
        {
            "buffer" : 0,
            "byteLength" : 1560,
            "byteOffset" : 192656
        },
        {
            "buffer" : 0,
            "byteLength" : 1040,
            "byteOffset" : 194216
        },
        {
            "buffer" : 0,
            "byteLength" : 600,
            "byteOffset" : 195256
        },
        {
            "buffer" : 0,
            "byteLength" : 1632,
            "byteOffset" : 195856
        },
        {
            "buffer" : 0,
            "byteLength" : 1632,
            "byteOffset" : 197488
        },
        {
            "buffer" : 0,
            "byteLength" : 1088,
            "byteOffset" : 199120
        },
        {
            "buffer" : 0,
            "byteLength" : 948,
            "byteOffset" : 200208
        }
    ],
    "buffers" : [
        {
            "byteLength" : 201156,
            "uri" : "data:application/octet-stream;base64,"
        }
    ]
}
