{
    "asset" : {
        "generator" : "Khronos glTF Blender I/O v3.2.43",
        "version" : "2.0"
    },
    "scene" : 0,
    "scenes" : [
        {
            "name" : "Scene",
            "nodes" : [
                0
            ]
        }
    ],
    "nodes" : [
        {
            "mesh" : 0,
            "name" : "Body",
            "rotation" : [
                0,
                -0.004616012331098318,
                0,
                0.9999893307685852
            ],
            "scale" : [
                0.0022488352842628956,
                0.0022488348186016083,
                0.0022488352842628956
            ],
            "translation" : [
                -0.003578792791813612,
                -0.2520277798175812,
                -0.00040526859811507165
            ]
        }
    ],
    "materials" : [
        {
            "doubleSided" : true,
            "name" : "Body",
            "pbrMetallicRoughness" : {
                "roughnessFactor" : 0.858578622341156
            }
        },
        {
            "doubleSided" : true,
            "name" : "Optics",
            "pbrMetallicRoughness" : {
                "roughnessFactor" : 0.858578622341156
            }
        },
        {
            "doubleSided" : true,
            "name" : "Glass",
            "pbrMetallicRoughness" : {
                "baseColorFactor" : [
                    0.10588236153125763,
                    0.10588236153125763,
                    0.10588236153125763,
                    0.5999999642372131
                ],
                "roughnessFactor" : 0.858578622341156
            }
        }
    ],
    "meshes" : [
        {
            "name" : "Mesh.004",
            "primitives" : [
                {
                    "attributes" : {
                        "POSITION" : 0,
                        "NORMAL" : 1,
                        "TEXCOORD_0" : 2
                    },
                    "indices" : 3,
                    "material" : 0
                },
                {
                    "attributes" : {
                        "POSITION" : 4,
                        "NORMAL" : 5,
                        "TEXCOORD_0" : 6
                    },
                    "indices" : 7,
                    "material" : 1
                },
                {
                    "attributes" : {
                        "POSITION" : 8,
                        "NORMAL" : 9,
                        "TEXCOORD_0" : 10
                    },
                    "indices" : 11,
                    "material" : 2
                }
            ]
        }
    ],
    "accessors" : [
        {
            "bufferView" : 0,
            "componentType" : 5126,
            "count" : 4902,
            "max" : [
                904.3771362304688,
                1472.8458251953125,
                1837.3558349609375
            ],
            "min" : [
                -904.3767700195312,
                123.58567810058594,
                -1827.4423828125
            ],
            "type" : "VEC3"
        },
        {
            "bufferView" : 1,
            "componentType" : 5126,
            "count" : 4902,
            "type" : "VEC3"
        },
        {
            "bufferView" : 2,
            "componentType" : 5126,
            "count" : 4902,
            "type" : "VEC2"
        },
        {
            "bufferView" : 3,
            "componentType" : 5123,
            "count" : 13893,
            "type" : "SCALAR"
        },
        {
            "bufferView" : 4,
            "componentType" : 5126,
            "count" : 284,
            "max" : [
                698.8814086914062,
                929.8095703125,
                1563.0322265625
            ],
            "min" : [
                -698.8814086914062,
                598.073974609375,
                -1693.124267578125
            ],
            "type" : "VEC3"
        },
        {
            "bufferView" : 5,
            "componentType" : 5126,
            "count" : 284,
            "type" : "VEC3"
        },
        {
            "bufferView" : 6,
            "componentType" : 5126,
            "count" : 284,
            "type" : "VEC2"
        },
        {
            "bufferView" : 7,
            "componentType" : 5123,
            "count" : 738,
            "type" : "SCALAR"
        },
        {
            "bufferView" : 8,
            "componentType" : 5126,
            "count" : 191,
            "max" : [
                643.1158447265625,
                1371.740966796875,
                1751.41162109375
            ],
            "min" : [
                -643.1158447265625,
                539.9501953125,
                -1668.279541015625
            ],
            "type" : "VEC3"
        },
        {
            "bufferView" : 9,
            "componentType" : 5126,
            "count" : 191,
            "type" : "VEC3"
        },
        {
            "bufferView" : 10,
            "componentType" : 5126,
            "count" : 191,
            "type" : "VEC2"
        },
        {
            "bufferView" : 11,
            "componentType" : 5123,
            "count" : 672,
            "type" : "SCALAR"
        }
    ],
    "bufferViews" : [
        {
            "buffer" : 0,
            "byteLength" : 58824,
            "byteOffset" : 0
        },
        {
            "buffer" : 0,
            "byteLength" : 58824,
            "byteOffset" : 58824
        },
        {
            "buffer" : 0,
            "byteLength" : 39216,
            "byteOffset" : 117648
        },
        {
            "buffer" : 0,
            "byteLength" : 27786,
            "byteOffset" : 156864
        },
        {
            "buffer" : 0,
            "byteLength" : 3408,
            "byteOffset" : 184652
        },
        {
            "buffer" : 0,
            "byteLength" : 3408,
            "byteOffset" : 188060
        },
        {
            "buffer" : 0,
            "byteLength" : 2272,
            "byteOffset" : 191468
        },
        {
            "buffer" : 0,
            "byteLength" : 1476,
            "byteOffset" : 193740
        },
        {
            "buffer" : 0,
            "byteLength" : 2292,
            "byteOffset" : 195216
        },
        {
            "buffer" : 0,
            "byteLength" : 2292,
            "byteOffset" : 197508
        },
        {
            "buffer" : 0,
            "byteLength" : 1528,
            "byteOffset" : 199800
        },
        {
            "buffer" : 0,
            "byteLength" : 1344,
            "byteOffset" : 201328
        }
    ],
    "buffers" : [
        {
            "byteLength" : 202672,
            "uri" : "data:application/octet-stream;base64,"
        }
    ]
}
