{
    "asset" : {
        "generator" : "Khronos glTF Blender I/O v3.2.43",
        "version" : "2.0"
    },
    "scene" : 0,
    "scenes" : [
        {
            "name" : "Scene",
            "nodes" : [
                0
            ]
        }
    ],
    "nodes" : [
        {
            "mesh" : 0,
            "name" : "Part_Roofrails.001",
            "rotation" : [
                0.006727714091539383,
                0.005018437281250954,
                3.377626126166433e-05,
                0.9999647736549377
            ],
            "scale" : [
                0.0022488348186016083,
                0.0022488348186016083,
                0.0022488348186016083
            ],
            "translation" : [
                0.0014431015588343143,
                0.001399710774421692,
                -0.000903167761862278
            ]
        }
    ],
    "materials" : [
        {
            "doubleSided" : true,
            "name" : "Body.009",
            "pbrMetallicRoughness" : {
                "roughnessFactor" : 0.858578622341156
            }
        }
    ],
    "meshes" : [
        {
            "name" : "Mesh.017",
            "primitives" : [
                {
                    "attributes" : {
                        "POSITION" : 0,
                        "NORMAL" : 1,
                        "TEXCOORD_0" : 2
                    },
                    "indices" : 3,
                    "material" : 0
                }
            ]
        }
    ],
    "accessors" : [
        {
            "bufferView" : 0,
            "componentType" : 5126,
            "count" : 92,
            "max" : [
                571.5064086914062,
                62.191802978515625,
                845.6092529296875
            ],
            "min" : [
                -590.0940551757812,
                -39.310516357421875,
                -946.0732421875
            ],
            "type" : "VEC3"
        },
        {
            "bufferView" : 1,
            "componentType" : 5126,
            "count" : 92,
            "type" : "VEC3"
        },
        {
            "bufferView" : 2,
            "componentType" : 5126,
            "count" : 92,
            "type" : "VEC2"
        },
        {
            "bufferView" : 3,
            "componentType" : 5123,
            "count" : 168,
            "type" : "SCALAR"
        }
    ],
    "bufferViews" : [
        {
            "buffer" : 0,
            "byteLength" : 1104,
            "byteOffset" : 0
        },
        {
            "buffer" : 0,
            "byteLength" : 1104,
            "byteOffset" : 1104
        },
        {
            "buffer" : 0,
            "byteLength" : 736,
            "byteOffset" : 2208
        },
        {
            "buffer" : 0,
            "byteLength" : 336,
            "byteOffset" : 2944
        }
    ],
    "buffers" : [
        {
            "byteLength" : 3280,
            "uri" : "data:application/octet-stream;base64,"
        }
    ]
}
